<svg width="16" height="16" viewBox="0 0 16 16" fill="none" xmlns="http://www.w3.org/2000/svg">
    <style>
        path {
            fill: #1c1c1c;
        }
        @media (prefers-color-scheme: dark) {
            path {
                fill: #e3e3e3;
            }
        }
    </style>
    <path fill-rule="evenodd" clip-rule="evenodd" d="M1.6499 0H14.3501C15.2612 0 16 0.73877 16 1.6499V14.3501C16 15.2612 15.2612 16 14.3501 16H1.6499C0.73877 16 0 15.2612 0 14.3501V1.6499C0 0.73877 0.73877 0 1.6499 0ZM7.57983 10.0198C7.53003 10.2498 7.53003 10.4797 7.53003 10.72L7.42993 10.7C7.3335 10.6265 7.22021 10.5786 7.10059 10.5605C6.98071 10.5425 6.8584 10.5552 6.74463 10.5969C6.6311 10.6389 6.52979 10.7087 6.4502 10.8C6.37085 10.8916 6.31567 11.0015 6.29004 11.1199C6.07031 11.6338 6.04883 12.2109 6.22998 12.74C6.51001 13.5598 6.94995 13.71 7.57983 13.2998C7.65771 13.3193 7.72095 13.343 7.77905 13.3647C7.89966 13.4102 7.9978 13.4468 8.15991 13.4199C8.3999 13.3799 8.3999 13.0398 8.3999 12.9399V12.6399V10.5098C8.41504 10.2534 8.41504 9.99634 8.3999 9.73999C8.38745 9.64185 8.33813 9.552 8.26196 9.48901C8.18579 9.42578 8.08862 9.39404 7.98999 9.3999C7.84668 9.3999 7.75464 9.46045 7.69458 9.55933C7.66675 9.60547 7.64575 9.65967 7.62988 9.71997C7.60352 9.81812 7.58691 9.91846 7.57983 10.0198ZM7.0061 12.3679C6.97241 12.2415 6.93994 12.1189 6.93994 11.99L6.94995 11.96C6.96997 11.7998 7.02002 11.5698 7.13989 11.5698C7.26001 11.5698 7.41992 11.7598 7.48999 11.8999C7.5481 12.0117 7.56079 12.1418 7.52539 12.2629C7.48999 12.384 7.40918 12.4868 7.30005 12.5498C7.16992 12.6199 7.06982 12.6199 7.03003 12.46L7.0061 12.3679ZM9.59009 13.45C9.73291 13.4087 9.87329 13.3584 10.01 13.3C10.1101 13.5701 10.27 13.6699 10.4299 13.5601C10.4792 13.5425 10.5254 13.5176 10.5669 13.4866C10.5886 13.4702 10.6094 13.4519 10.6284 13.4321C10.6545 13.4053 10.6775 13.3757 10.697 13.3442C10.7192 13.3086 10.7371 13.2703 10.75 13.23C10.9275 12.4646 10.843 11.6616 10.51 10.95C10.4072 10.7993 10.2693 10.6763 10.1082 10.5911C9.94678 10.5059 9.76733 10.4614 9.58496 10.4614C9.40259 10.4614 9.22314 10.5059 9.06201 10.5911C8.90088 10.6763 8.7627 10.7993 8.65991 10.95C8.59888 11.0208 8.56519 11.1113 8.56519 11.2051C8.56519 11.2986 8.59888 11.3892 8.65991 11.46C8.82007 11.6099 9.01001 11.5601 9.18994 11.46C9.28833 11.3999 9.39209 11.3499 9.5 11.3101C9.71997 11.24 9.8501 11.3101 9.8501 11.5601L9.66992 11.6199C9.37646 11.7344 9.09229 11.8713 8.82007 12.03C8.73877 12.0801 8.66821 12.1458 8.61255 12.2234C8.55664 12.3008 8.51709 12.3887 8.49561 12.4817C8.47412 12.575 8.47144 12.6711 8.48779 12.7654C8.50391 12.8594 8.53882 12.9495 8.59009 13.03C8.66748 13.2178 8.81616 13.3672 9.00342 13.4458C9.19092 13.5247 9.40161 13.5261 9.59009 13.45ZM9.40991 12.6299L9.88989 12.3V12.26C9.95996 12.5701 9.81006 12.6599 9.40991 12.6299ZM3.63989 12.1101C3.72803 11.9233 3.80542 11.7527 3.88184 11.5842L3.99048 11.3462C4.02588 11.2688 4.06201 11.1907 4.09985 11.1101C4.18018 10.9517 4.28857 10.8093 4.41992 10.6899C4.44995 10.6675 4.48291 10.6492 4.51758 10.6353C4.5415 10.6257 4.56641 10.6184 4.5918 10.6135C4.6543 10.6016 4.71851 10.6038 4.77979 10.6199C4.83032 10.6558 4.87256 10.7019 4.90381 10.7554C4.93481 10.8088 4.95386 10.8684 4.95996 10.9299C4.97656 11.0803 4.95239 11.2322 4.88989 11.3699C4.67993 11.9199 4.44995 12.45 4.20996 12.99C4.17725 13.0576 4.13867 13.1223 4.09497 13.1829C4.06567 13.2236 4.03394 13.2627 4 13.3C3.96118 13.3665 3.90576 13.4214 3.83887 13.4597C3.77222 13.498 3.69678 13.5181 3.61987 13.5181C3.54297 13.5181 3.46753 13.498 3.40088 13.4597C3.33423 13.4214 3.27856 13.3665 3.23999 13.3C2.76709 12.6445 2.49268 11.8669 2.44995 11.0601C2.4353 11.0002 2.43506 10.9385 2.44873 10.8796C2.45776 10.8406 2.4729 10.8027 2.49365 10.7676C2.54614 10.6797 2.63086 10.616 2.72998 10.5901C2.98999 10.52 3.12988 10.6699 3.21997 10.8699C3.323 11.115 3.41333 11.3655 3.48999 11.6199C3.52393 11.7651 3.56543 11.8884 3.61426 12.0334L3.63989 12.1101ZM12.2322 10.7117C12.0957 10.7632 11.9768 10.8528 11.8899 10.97C11.8904 10.9263 11.887 10.8828 11.8799 10.8398C11.8499 10.8179 11.8181 10.7915 11.7861 10.7649C11.7009 10.6938 11.6125 10.6199 11.5398 10.6199C11.5027 10.6287 11.4666 10.6411 11.4319 10.657C11.3975 10.6729 11.3647 10.6919 11.334 10.7141C11.2722 10.7588 11.22 10.8149 11.1799 10.8799C11.1082 11.0039 11.0767 11.1472 11.0898 11.2898V12.7898C11.1008 12.9902 11.1484 13.1868 11.23 13.3699C11.25 13.4324 11.2896 13.4866 11.3425 13.5251C11.3955 13.5637 11.4592 13.5847 11.5249 13.5847C11.5906 13.5847 11.6543 13.5637 11.7073 13.5251C11.7603 13.4866 11.7998 13.4324 11.8198 13.3699C11.9006 13.179 11.9514 12.9766 11.97 12.77V12.0698C12.0081 11.7769 12.1111 11.6379 12.2866 11.5964C12.387 11.5728 12.511 11.5808 12.6599 11.6099C12.7397 11.6196 12.8208 11.613 12.8982 11.5906C12.9753 11.5684 13.0474 11.5305 13.1099 11.48C13.1294 11.447 13.1453 11.4124 13.1572 11.3765C13.1687 11.342 13.1765 11.3064 13.1809 11.2703C13.1895 11.196 13.1824 11.1211 13.1599 11.0498C13.1235 10.9451 13.0564 10.8535 12.9673 10.7874C12.8992 10.7371 12.8206 10.7031 12.738 10.6882C12.7124 10.6836 12.6863 10.6809 12.6599 10.6799C12.5173 10.6492 12.3689 10.6602 12.2322 10.7117ZM6.03003 11.75C6.03003 12.123 5.99219 12.4141 5.95679 12.6882L5.9397 12.8203L5.93018 12.9001C5.91553 13.0332 5.86743 13.1606 5.79004 13.27C5.70898 13.3669 5.59521 13.4309 5.46997 13.45C5.37012 13.45 5.26001 13.3301 5.2002 13.24C5.13818 13.1299 5.10376 13.0063 5.1001 12.8801V11.2C5.10718 11.0312 5.16284 10.8682 5.26001 10.73C5.30054 10.6772 5.35156 10.6338 5.4104 10.6028C5.46899 10.5718 5.53369 10.5537 5.6001 10.55C5.66016 10.5642 5.71582 10.5925 5.7627 10.6326C5.80957 10.6726 5.84644 10.7231 5.87012 10.78C5.93237 11.0295 5.96606 11.2839 5.99414 11.4963L5.99561 11.5059C6.00757 11.5964 6.01831 11.6787 6.03003 11.75ZM13.4373 13.4834C13.4868 13.4963 13.5383 13.502 13.5901 13.5C13.6394 13.5056 13.6895 13.501 13.7371 13.4868C13.7847 13.4727 13.8291 13.449 13.8672 13.4172C13.9055 13.3855 13.937 13.3462 13.9597 13.302C13.9827 13.2578 13.9963 13.2097 14 13.1602C13.9785 13.0391 13.9141 12.9302 13.8184 12.853C13.7229 12.7759 13.6028 12.7358 13.48 12.74C13.23 12.74 13.05 12.8701 13.05 13.0701C13.074 13.1943 13.1414 13.3062 13.2405 13.385C13.2991 13.4316 13.3662 13.4648 13.4373 13.4834ZM5.67017 9.71997C5.80005 9.71997 5.94995 9.71997 5.95996 9.96997C5.95264 10.031 5.93213 10.0891 5.90063 10.1404C5.87817 10.177 5.84985 10.2102 5.81689 10.2385C5.7373 10.3071 5.63501 10.3433 5.53003 10.3401C5.3501 10.3401 5.21021 10.28 5.2002 10.0801C5.19019 9.87988 5.38013 9.71997 5.67017 9.71997Z"/>
</svg>
