<svg width="32" height="32" viewBox="0 0 32 32" fill="none" xmlns="http://www.w3.org/2000/svg">
<path d="M10.4392 19.3337C7.93172 19.495 5.65614 20.45 4.36491 23.8525C4.21804 24.2406 3.86492 24.4762 3.45306 24.4762C2.7587 24.4762 0.611863 22.7469 0 22.3294C0.000624988 27.4762 2.3712 32 8.00047 32C12.7416 32 16.0003 29.2644 16.0003 24.4881C16.0003 24.2937 15.9597 24.1081 15.9397 23.9175L10.4392 19.3337ZM28.6182 0C27.6707 0 26.7826 0.419375 26.1051 1.02813C13.3297 12.4406 12.0004 12.7087 12.0004 16.0681C12.0004 16.9244 12.2035 17.7406 12.546 18.4869L16.5347 21.8106C16.9853 21.9231 17.4497 22 17.934 22C21.8158 22 24.0658 19.1581 31.1313 5.97125C31.5925 5.07438 32 4.10562 32 3.09687C32 1.29 30.375 0 28.6182 0Z" fill="red"/>
</svg>
